<svg xmlns="http://www.w3.org/2000/svg" xmlns:xlink="http://www.w3.org/1999/xlink" width="1080" zoomAndPan="magnify" viewBox="0 0 810 809.999993" height="1080" preserveAspectRatio="xMidYMid meet" version="1.0"><defs><clipPath id="852d201803"><path d="M 142 112.152344 L 635.628906 112.152344 L 635.628906 776.652344 L 142 776.652344 Z M 142 112.152344 " clip-rule="nonzero"/></clipPath><clipPath id="878e55d6aa"><path d="M 311 320.394531 L 592 320.394531 L 592 416 L 311 416 Z M 311 320.394531 " clip-rule="nonzero"/></clipPath><clipPath id="5bbe806d15"><path d="M 141.378906 33.101562 L 580.128906 33.101562 L 580.128906 313.601562 L 141.378906 313.601562 Z M 141.378906 33.101562 " clip-rule="nonzero"/></clipPath><clipPath id="c1510825e6"><path d="M 393 489.363281 L 521.496094 489.363281 L 521.496094 593.730469 L 393 593.730469 Z M 393 489.363281 " clip-rule="nonzero"/></clipPath><clipPath id="bfcbb0c474"><path d="M 411.011719 492.871094 C 439.511719 524.597656 451.585938 534.496094 458.335938 539.671875 C 462.085938 542.597656 464.558594 543.574219 467.558594 545.972656 C 470.710938 548.523438 472.886719 551.597656 476.785156 554.449219 C 482.109375 558.347656 491.484375 563.523438 497.410156 566.148438 C 501.609375 568.023438 505.058594 568.324219 508.511719 569.824219 C 511.660156 571.171875 515.109375 572.597656 517.210938 574.546875 C 518.933594 576.199219 520.210938 578.449219 520.808594 580.171875 C 521.261719 581.371094 521.335938 582.347656 521.109375 583.621094 C 520.808594 585.421875 519.910156 588.199219 518.484375 589.773438 C 517.058594 591.347656 514.734375 592.699219 512.636719 593.074219 C 510.535156 593.449219 507.910156 593.074219 506.035156 592.171875 C 504.160156 591.273438 502.136719 589.023438 501.234375 587.449219 C 500.558594 586.324219 500.335938 585.496094 500.261719 584.222656 C 500.183594 582.421875 500.410156 579.496094 501.460938 577.621094 C 502.511719 575.746094 504.910156 573.949219 506.484375 573.121094 C 507.609375 572.523438 508.511719 572.296875 509.785156 572.296875 C 511.585938 572.296875 514.433594 572.746094 516.234375 573.871094 C 518.035156 574.996094 519.761719 577.097656 520.511719 579.121094 C 521.261719 581.074219 521.035156 583.996094 520.660156 585.796875 C 520.359375 587.074219 519.984375 587.898438 519.160156 588.871094 C 518.035156 590.222656 515.410156 592.097656 513.761719 592.773438 C 512.558594 593.296875 511.511719 593.296875 510.386719 593.296875 C 509.261719 593.296875 508.210938 593.148438 507.011719 592.621094 C 505.359375 591.949219 504.160156 590.449219 501.535156 588.871094 C 495.386719 585.199219 476.710938 577.097656 469.433594 572.746094 C 465.386719 570.347656 464.335938 569.449219 460.433594 566.449219 C 452.335938 560.296875 435.460938 546.722656 424.433594 536.523438 C 414.160156 527.074219 400.433594 513.199219 396.160156 507.722656 C 394.660156 505.773438 394.058594 505.023438 393.535156 503.449219 C 393.011719 501.871094 392.933594 499.996094 393.234375 498.421875 C 393.535156 496.847656 394.511719 494.972656 395.261719 493.847656 C 395.785156 493.023438 396.234375 492.574219 397.058594 492.046875 C 398.183594 491.296875 400.285156 490.246094 401.636719 489.949219 C 402.609375 489.722656 403.210938 489.648438 404.183594 489.796875 C 405.535156 489.949219 407.785156 490.699219 408.984375 491.296875 C 409.886719 491.746094 411.011719 492.871094 411.011719 492.871094 " clip-rule="nonzero"/></clipPath></defs><g clip-path="url(#852d201803)"><path fill="#2e2e2e" d="M 612.1875 247.722656 L 524.398438 247.722656 L 635.738281 136.386719 L 611.507812 112.152344 L 475.941406 247.722656 L 156.308594 247.722656 C 150.757812 247.722656 145.800781 251.039062 143.675781 256.164062 C 141.550781 261.292969 142.714844 267.144531 146.640625 271.066406 L 363.652344 488.082031 L 363.652344 737.226562 C 356.683594 738.570312 349.730469 740.1875 342.957031 741.761719 C 335.273438 743.550781 327.324219 745.398438 319.59375 746.785156 C 306.808594 749.074219 297.878906 758.675781 297.878906 770.132812 L 297.878906 776.886719 L 470.613281 776.886719 L 470.613281 770.132812 C 470.613281 758.679688 461.6875 749.078125 448.90625 746.78125 C 441.21875 745.394531 433.316406 743.550781 425.671875 741.769531 C 418.855469 740.179688 411.855469 738.546875 404.835938 737.195312 L 404.835938 488.078125 L 621.855469 271.066406 C 625.777344 267.140625 626.941406 261.289062 624.816406 256.164062 C 622.695312 251.035156 617.738281 247.722656 612.1875 247.722656 Z M 611.507812 131.257812 L 616.632812 136.386719 L 505.296875 247.722656 L 495.046875 247.722656 Z M 612.304688 261.511719 L 391.332031 482.484375 L 391.332031 748.546875 L 396.964844 749.496094 C 405.441406 750.921875 414.167969 752.957031 422.605469 754.921875 C 430.414062 756.746094 438.488281 758.628906 446.515625 760.074219 C 449.371094 760.589844 451.859375 761.777344 453.707031 763.378906 L 314.789062 763.378906 C 316.636719 761.777344 319.125 760.59375 321.976562 760.082031 C 330.050781 758.636719 338.167969 756.746094 346.019531 754.917969 C 354.417969 752.964844 363.097656 750.945312 371.53125 749.523438 L 377.164062 748.574219 L 377.164062 482.484375 L 156.128906 261.453125 C 156.125 261.390625 156.175781 261.265625 156.308594 261.230469 L 612.273438 261.230469 C 612.320312 261.265625 612.375 261.394531 612.304688 261.511719 Z M 612.304688 261.511719 " fill-opacity="1" fill-rule="nonzero"/></g><g clip-path="url(#878e55d6aa)"><path fill="#2e2e2e" d="M 589.347656 348.320312 C 587.042969 349.945312 584.09375 353.300781 583.6875 360.078125 C 583.789062 362.992188 583.6875 365.90625 583.519531 368.753906 C 581.925781 393.832031 576.570312 409.65625 531.160156 415.214844 C 529.160156 415.449219 527.195312 415.585938 525.296875 415.6875 C 476.738281 417.449219 458.640625 371.09375 462.605469 348.523438 C 462.640625 348.453125 462.605469 348.386719 462.640625 348.351562 C 459.894531 347.371094 456.40625 346.589844 452.101562 346.589844 C 448.644531 346.589844 444.714844 347.097656 440.308594 348.421875 C 440.308594 348.453125 440.308594 348.523438 440.308594 348.554688 C 444.238281 371.058594 426.175781 417.417969 377.546875 415.621094 C 375.648438 415.554688 373.683594 415.382812 371.683594 415.144531 C 326.273438 409.621094 320.953125 393.796875 319.328125 368.6875 C 319.125 365.839844 319.058594 362.925781 319.160156 360.011719 C 318.785156 353.234375 315.804688 349.878906 313.5 348.25 C 311.871094 347.097656 310.992188 345.132812 311.128906 343.132812 C 311.398438 339.507812 311.703125 335.882812 311.972656 332.257812 C 312.210938 329.445312 314.449219 327.171875 317.261719 326.9375 C 317.296875 326.9375 317.328125 326.9375 317.363281 326.9375 C 333.59375 325.582031 349.421875 321.851562 365.550781 320.871094 C 371.820312 320.464844 378.125 320.394531 384.425781 320.632812 C 394.355469 321.003906 404.25 322.226562 413.941406 324.394531 C 416.722656 325.039062 419.398438 325.886719 421.941406 326.9375 C 421.941406 326.9375 434.785156 328.800781 452.441406 328.800781 C 460.980469 328.800781 470.671875 328.359375 480.53125 327.070312 C 483.140625 325.953125 485.921875 325.074219 488.800781 324.429688 C 498.492188 322.226562 508.386719 321.039062 518.316406 320.667969 C 524.621094 320.429688 530.921875 320.496094 537.191406 320.902344 C 553.390625 321.921875 569.21875 325.648438 585.449219 327.003906 C 585.484375 327.003906 585.515625 327.003906 585.550781 327.003906 C 588.363281 327.242188 590.632812 329.476562 590.835938 332.324219 C 591.109375 335.949219 591.414062 339.578125 591.683594 343.203125 C 591.855469 345.203125 590.972656 347.167969 589.347656 348.320312 Z M 589.347656 348.320312 " fill-opacity="1" fill-rule="nonzero"/></g><path fill="#2e2e2e" d="M 362.433594 404.675781 C 321.835938 397.898438 330.917969 351.335938 330.917969 351.335938 C 333.222656 392.78125 362.433594 404.675781 362.433594 404.675781 Z M 479.820312 349.640625 C 479.820312 349.640625 470.707031 396.203125 511.335938 402.980469 C 511.335938 402.980469 482.160156 391.085938 479.820312 349.640625 Z M 479.820312 349.640625 " fill-opacity="1" fill-rule="nonzero"/><g clip-path="url(#5bbe806d15)"><path fill="#2e2e2e" d="M 360.695312 191.007812 C 439.246094 191.007812 481.273438 170.453125 494.417969 162.628906 C 484.6875 110.433594 462.757812 33.101562 418.121094 33.101562 C 405.890625 33.101562 392.601562 37.402344 378.582031 45.875 C 367.546875 52.542969 353.84375 52.542969 342.808594 45.875 C 328.789062 37.402344 315.5 33.101562 303.269531 33.101562 C 258.628906 33.101562 236.703125 110.449219 226.976562 162.648438 C 239.960938 170.375 281.988281 191.007812 360.695312 191.007812 Z M 514.332031 191.578125 C 497.925781 201.796875 449.589844 226.097656 360.695312 226.097656 C 271.804688 226.097656 223.464844 201.796875 207.0625 191.578125 C 181.8125 199.78125 141.382812 216.949219 141.382812 242.84375 C 141.382812 288.945312 254.382812 313.824219 360.695312 313.824219 C 467.011719 313.824219 580.011719 288.945312 580.011719 242.84375 C 580.011719 216.949219 539.578125 199.78125 514.332031 191.578125 Z M 514.332031 191.578125 " fill-opacity="1" fill-rule="nonzero"/></g><path fill="#ff3131" d="M 593.953125 437.601562 C 560.300781 437.601562 532.871094 465.03125 532.871094 498.683594 C 532.871094 513.070312 538.085938 526.136719 546.441406 536.597656 L 478.871094 604.175781 L 488.460938 613.765625 L 556.035156 546.191406 C 566.5 554.550781 579.566406 559.765625 593.953125 559.765625 C 627.605469 559.765625 655.035156 532.332031 655.035156 498.679688 C 655.035156 465.03125 627.605469 437.597656 593.953125 437.597656 Z M 593.953125 451.175781 C 620.277344 451.175781 641.460938 472.359375 641.460938 498.683594 C 641.460938 525.003906 620.277344 546.195312 593.953125 546.195312 C 567.632812 546.195312 546.441406 525.003906 546.441406 498.683594 C 546.441406 472.359375 567.632812 451.175781 593.953125 451.175781 Z M 593.953125 451.175781 " fill-opacity="1" fill-rule="nonzero"/><g clip-path="url(#c1510825e6)"><g clip-path="url(#bfcbb0c474)"><path fill="#2e2e2e" d="M 390.234375 486.796875 L 524.109375 486.796875 L 524.109375 596.296875 L 390.234375 596.296875 Z M 390.234375 486.796875 " fill-opacity="1" fill-rule="nonzero"/></g></g></svg>